<svg width="32" height="32" viewBox="0 0 32 32" fill="none" xmlns="http://www.w3.org/2000/svg">
<path fill-rule="evenodd" clip-rule="evenodd" d="M22.9064 5.88C22.9064 4.10667 24.3464 2.66667 26.1197 2.66667C27.8931 2.66667 29.3331 4.10667 29.3331 5.88C29.3331 7.65333 27.8931 9.09333 26.1197 9.09333C24.3464 9.09333 22.9064 7.65333 22.9064 5.88ZM17.7729 19.6791L21.6263 14.7071L21.5729 14.7337C21.7863 14.4404 21.8263 14.0671 21.6796 13.7337C21.5343 13.4004 21.2129 13.1737 20.8676 13.1471C20.5063 13.1071 20.1476 13.2671 19.9329 13.5604L16.7076 17.7337L13.0129 14.8271C12.7863 14.6537 12.5196 14.5857 12.2529 14.6137C11.9876 14.6537 11.7476 14.7991 11.5863 15.0124L7.64093 20.1471L7.55959 20.2671C7.33293 20.6924 7.43959 21.2391 7.83959 21.5337C8.02626 21.6537 8.22626 21.7337 8.45293 21.7337C8.76093 21.7471 9.05293 21.5857 9.23959 21.3337L12.5863 17.0257L16.3863 19.8804L16.5063 19.9591C16.9329 20.1857 17.4663 20.0804 17.7729 19.6791ZM20.5996 5.0404C20.5463 5.37373 20.5196 5.70707 20.5196 6.0404C20.5196 9.0404 22.9463 11.4657 25.9329 11.4657C26.2663 11.4657 26.5863 11.4271 26.9196 11.3737V22.1324C26.9196 26.6537 24.2529 29.3337 19.7196 29.3337H9.86759C5.33293 29.3337 2.66626 26.6537 2.66626 22.1324V12.2671C2.66626 7.73373 5.33293 5.0404 9.86759 5.0404H20.5996Z" fill="white"/>
</svg>
