<svg width="236" height="72" viewBox="0 0 236 72" fill="none" xmlns="http://www.w3.org/2000/svg">
<g filter="url(#filter0_d_3_34)">
<path d="M65 44.6643V30.5944H69.2835V32.1888C69.5822 31.9464 69.9554 31.6946 70.4034 31.4336C70.8513 31.1538 71.3273 30.9021 71.8312 30.6783C72.3352 30.4545 72.8205 30.3147 73.2871 30.2587V34.3427C72.8391 34.3986 72.3632 34.5105 71.8592 34.6783C71.3553 34.8275 70.8793 35.0047 70.4314 35.2098C69.9834 35.3963 69.6008 35.5734 69.2835 35.7413V44.6643H65Z" fill="white"/>
<path d="M78.9256 45C77.3951 45 76.2472 44.627 75.482 43.8811C74.7354 43.1352 74.3621 41.9977 74.3621 40.4685C74.3621 39.3869 74.5581 38.5571 74.95 37.979C75.3607 37.3823 75.9486 36.9534 76.7138 36.6923C77.4791 36.4312 78.403 36.2727 79.4855 36.2168L82.6212 35.965V35.2378C82.6212 34.6783 82.4625 34.2867 82.1452 34.0629C81.8466 33.8205 81.3987 33.6993 80.8014 33.6993C80.2601 33.6993 79.6442 33.7179 78.9536 33.7552C78.263 33.7925 77.5817 33.8392 76.9098 33.8951C76.2379 33.951 75.6593 34.007 75.174 34.0629L75.034 31.0979C75.538 30.9674 76.1352 30.8462 76.8258 30.7343C77.5351 30.6037 78.2723 30.5012 79.0376 30.4266C79.8028 30.3333 80.5214 30.2867 81.1933 30.2867C82.4065 30.2867 83.4331 30.4359 84.273 30.7343C85.1316 31.014 85.7848 31.4988 86.2328 32.1888C86.6807 32.8601 86.9047 33.8019 86.9047 35.014V41.1678C86.9607 41.3916 87.0913 41.5688 87.2967 41.6993C87.5206 41.8112 87.7633 41.8951 88.0246 41.951L87.9406 44.8042C87.5113 44.8415 87.054 44.8695 86.5687 44.8881C86.1021 44.9068 85.7288 44.8974 85.4489 44.8601C84.9636 44.8042 84.5436 44.6923 84.189 44.5245C83.853 44.338 83.6011 44.1515 83.4331 43.965C83.1345 44.0956 82.7425 44.2448 82.2572 44.4126C81.7719 44.5804 81.24 44.7203 80.6614 44.8322C80.1015 44.9441 79.5229 45 78.9256 45ZM79.9895 41.8951C80.3068 41.8951 80.6241 41.8578 80.9414 41.7832C81.2773 41.7086 81.5946 41.6247 81.8933 41.5315C82.1919 41.4382 82.4345 41.3543 82.6212 41.2797V38.5105L80.1575 38.7343C79.6349 38.7902 79.2522 38.958 79.0096 39.2378C78.7669 39.4988 78.6456 39.8718 78.6456 40.3566C78.6456 40.8228 78.7576 41.1958 78.9816 41.4755C79.2056 41.7552 79.5415 41.8951 79.9895 41.8951Z" fill="white"/>
<path d="M89.88 44.6643V25H94.1635V35.7133L95.6194 35.6853L98.1671 30.5944H102.563L99.343 37.2517L102.759 44.6643H98.3351L95.6754 39.4056L94.1635 39.4615V44.6643H89.88Z" fill="white"/>
<path d="M104.371 44.6643V25H108.654V31.042C109.102 30.8741 109.681 30.7063 110.39 30.5385C111.099 30.3706 111.724 30.2867 112.266 30.2867C113.591 30.2867 114.617 30.5198 115.345 30.986C116.092 31.4336 116.615 32.1702 116.913 33.1958C117.23 34.2214 117.389 35.5921 117.389 37.3077V44.6643H113.106V37.6713C113.106 36.7949 113.05 36.0862 112.938 35.5455C112.844 35.0047 112.658 34.6131 112.378 34.3706C112.098 34.1282 111.687 34.007 111.146 34.007C110.698 34.007 110.241 34.0629 109.774 34.1748C109.307 34.2867 108.934 34.3893 108.654 34.4825V44.6643H104.371Z" fill="white"/>
<path d="M123.901 45C122.371 45 121.223 44.627 120.457 43.8811C119.711 43.1352 119.338 41.9977 119.338 40.4685C119.338 39.3869 119.534 38.5571 119.925 37.979C120.336 37.3823 120.924 36.9534 121.689 36.6923C122.455 36.4312 123.378 36.2727 124.461 36.2168L127.597 35.965V35.2378C127.597 34.6783 127.438 34.2867 127.121 34.0629C126.822 33.8205 126.374 33.6993 125.777 33.6993C125.236 33.6993 124.62 33.7179 123.929 33.7552C123.238 33.7925 122.557 33.8392 121.885 33.8951C121.213 33.951 120.635 34.007 120.149 34.0629L120.009 31.0979C120.513 30.9674 121.111 30.8462 121.801 30.7343C122.511 30.6037 123.248 30.5012 124.013 30.4266C124.778 30.3333 125.497 30.2867 126.169 30.2867C127.382 30.2867 128.409 30.4359 129.248 30.7343C130.107 31.014 130.76 31.4988 131.208 32.1888C131.656 32.8601 131.88 33.8019 131.88 35.014V41.1678C131.936 41.3916 132.067 41.5688 132.272 41.6993C132.496 41.8112 132.739 41.8951 133 41.951L132.916 44.8042C132.487 44.8415 132.029 44.8695 131.544 44.8881C131.078 44.9068 130.704 44.8974 130.424 44.8601C129.939 44.8042 129.519 44.6923 129.164 44.5245C128.828 44.338 128.576 44.1515 128.409 43.965C128.11 44.0956 127.718 44.2448 127.233 44.4126C126.747 44.5804 126.215 44.7203 125.637 44.8322C125.077 44.9441 124.498 45 123.901 45ZM124.965 41.8951C125.282 41.8951 125.599 41.8578 125.917 41.7832C126.253 41.7086 126.57 41.6247 126.869 41.5315C127.167 41.4382 127.41 41.3543 127.597 41.2797V38.5105L125.133 38.7343C124.61 38.7902 124.228 38.958 123.985 39.2378C123.742 39.4988 123.621 39.8718 123.621 40.3566C123.621 40.8228 123.733 41.1958 123.957 41.4755C124.181 41.7552 124.517 41.8951 124.965 41.8951Z" fill="white"/>
</g>
<g clip-path="url(#clip0_3_34)">
<g filter="url(#filter1_d_3_34)">
<path d="M140.409 44.9781C138.749 44.9781 137.452 44.7329 136.519 44.2426C135.586 43.7334 134.933 42.9225 134.56 41.8098C134.187 40.6971 134 39.2355 134 37.425C134 35.5957 134.215 34.153 134.644 33.0969C135.073 32.0219 135.754 31.2581 136.687 30.8055C137.639 30.3341 138.879 30.0983 140.409 30.0983C140.839 30.0983 141.324 30.1266 141.865 30.1832C142.406 30.2398 142.947 30.3152 143.488 30.4095C144.029 30.5038 144.496 30.5981 144.888 30.6924L144.748 34.1436C144.374 34.1059 143.955 34.0681 143.488 34.0304C143.022 33.9927 142.574 33.9644 142.145 33.9456C141.715 33.9078 141.37 33.889 141.109 33.889C140.4 33.889 139.84 34.0021 139.43 34.2284C139.019 34.4548 138.73 34.8319 138.562 35.36C138.394 35.8692 138.31 36.5575 138.31 37.425C138.31 38.3303 138.385 39.0658 138.534 39.6316C138.702 40.1785 138.982 40.5745 139.374 40.8197C139.784 41.046 140.363 41.1591 141.109 41.1591C141.37 41.1591 141.715 41.1497 142.145 41.1308C142.592 41.0931 143.05 41.0554 143.516 41.0177C144.001 40.98 144.43 40.9517 144.804 40.9328L144.916 44.3557C144.542 44.45 144.085 44.5443 143.544 44.6386C143.022 44.7141 142.481 44.7895 141.921 44.8649C141.361 44.9404 140.857 44.9781 140.409 44.9781Z" fill="white"/>
<path d="M147.075 44.6386V30.4095H151.358V44.6386H147.075ZM147.075 28.4293V24.9781H151.358V28.4293H147.075Z" fill="white"/>
<path d="M154.1 44.6386V30.4095H158.354V31.2864C158.783 31.0224 159.352 30.7584 160.061 30.4944C160.77 30.2303 161.452 30.0983 162.105 30.0983C162.944 30.0983 163.625 30.2209 164.148 30.4661C164.689 30.6924 165.127 31.0224 165.463 31.4562C165.799 31.2487 166.21 31.0413 166.695 30.8338C167.199 30.6264 167.74 30.4566 168.318 30.3246C168.896 30.1738 169.466 30.0983 170.025 30.0983C171.425 30.0983 172.498 30.3529 173.244 30.8621C173.99 31.3524 174.504 32.1351 174.783 33.2101C175.082 34.2662 175.231 35.624 175.231 37.2836V44.6386H170.977V37.7079C170.977 36.8216 170.93 36.0955 170.837 35.5297C170.744 34.9639 170.557 34.549 170.277 34.285C169.997 34.0021 169.596 33.8607 169.074 33.8607C168.607 33.8607 168.141 33.9267 167.674 34.0587C167.208 34.1907 166.844 34.3227 166.583 34.4548C166.695 34.7942 166.769 35.2657 166.807 35.8692C166.844 36.4538 166.863 37.0573 166.863 37.6796V44.6386H162.58V37.7645C162.58 36.8404 162.534 36.0955 162.44 35.5297C162.347 34.9639 162.161 34.549 161.881 34.285C161.619 34.0021 161.228 33.8607 160.705 33.8607C160.257 33.8607 159.81 33.9267 159.362 34.0587C158.933 34.1719 158.606 34.2944 158.382 34.4265V44.6386H154.1Z" fill="white"/>
<path d="M181.742 44.9781C180.212 44.9781 179.065 44.6009 178.3 43.8465C177.553 43.0922 177.18 41.9418 177.18 40.3953C177.18 39.3015 177.376 38.4623 177.768 37.8777C178.178 37.2742 178.766 36.8404 179.531 36.5764C180.296 36.3124 181.22 36.1521 182.302 36.0955L185.437 35.8409V35.1054C185.437 34.5396 185.278 34.1436 184.961 33.9173C184.662 33.6721 184.215 33.5495 183.617 33.5495C183.076 33.5495 182.461 33.5684 181.77 33.6061C181.08 33.6438 180.399 33.691 179.727 33.7475C179.055 33.8041 178.477 33.8607 177.992 33.9173L177.852 30.9187C178.356 30.7867 178.953 30.6641 179.643 30.5509C180.352 30.4189 181.089 30.3152 181.854 30.2398C182.619 30.1455 183.338 30.0983 184.009 30.0983C185.222 30.0983 186.248 30.2492 187.088 30.5509C187.946 30.8338 188.599 31.3242 189.047 32.0219C189.495 32.7009 189.719 33.6532 189.719 34.8791V41.1026C189.775 41.3289 189.906 41.508 190.111 41.64C190.335 41.7532 190.577 41.8381 190.839 41.8946L190.755 44.7801C190.325 44.8178 189.868 44.8461 189.383 44.8649C188.917 44.8838 188.543 44.8744 188.264 44.8366C187.778 44.7801 187.359 44.6669 187.004 44.4972C186.668 44.3086 186.416 44.12 186.248 43.9314C185.95 44.0634 185.558 44.2143 185.073 44.384C184.588 44.5538 184.056 44.6952 183.478 44.8084C182.918 44.9215 182.339 44.9781 181.742 44.9781ZM182.806 41.8381C183.123 41.8381 183.44 41.8003 183.757 41.7249C184.093 41.6495 184.41 41.5646 184.709 41.4703C185.008 41.376 185.25 41.2911 185.437 41.2157V38.4151L182.974 38.6415C182.451 38.698 182.069 38.8678 181.826 39.1506C181.584 39.4147 181.462 39.7919 181.462 40.2822C181.462 40.7537 181.574 41.1308 181.798 41.4137C182.022 41.6966 182.358 41.8381 182.806 41.8381Z" fill="white"/>
<path d="M192.693 44.6386V30.4095H196.948V31.2864C197.246 31.0978 197.601 30.9187 198.011 30.749C198.422 30.5604 198.851 30.4095 199.299 30.2963C199.765 30.1643 200.204 30.0983 200.614 30.0983C201.939 30.0983 202.965 30.3341 203.693 30.8055C204.439 31.2581 204.962 32.0219 205.26 33.0969C205.577 34.153 205.736 35.558 205.736 37.3119V44.6386H201.454V37.5665C201.454 36.6801 201.398 35.9635 201.286 35.4166C201.174 34.8696 200.978 34.4736 200.698 34.2284C200.418 33.9833 200.017 33.8607 199.495 33.8607C199.196 33.8607 198.888 33.889 198.571 33.9456C198.254 34.0021 197.955 34.0776 197.675 34.1719C197.395 34.2662 197.162 34.3605 196.976 34.4548V44.6386H192.693Z" fill="white"/>
<path d="M214.597 44.9781C213.011 44.9781 211.714 44.7235 210.707 44.2143C209.718 43.6862 208.99 42.8659 208.524 41.7532C208.076 40.6405 207.852 39.2072 207.852 37.4533C207.852 35.7183 208.085 34.3133 208.551 33.2383C209.037 32.1634 209.783 31.3713 210.791 30.8621C211.798 30.3529 213.067 30.0983 214.597 30.0983C216.164 30.0983 217.443 30.3529 218.431 30.8621C219.439 31.3713 220.176 32.1634 220.643 33.2383C221.128 34.3133 221.37 35.7183 221.37 37.4533C221.37 39.2072 221.137 40.6405 220.671 41.7532C220.223 42.8659 219.495 43.6862 218.487 44.2143C217.498 44.7235 216.202 44.9781 214.597 44.9781ZM214.597 41.4137C215.287 41.4137 215.801 41.2817 216.136 41.0177C216.491 40.7537 216.724 40.3293 216.836 39.7447C216.967 39.1601 217.032 38.3963 217.032 37.4533C217.032 36.4915 216.957 35.7372 216.808 35.1903C216.659 34.6433 216.407 34.2473 216.052 34.0021C215.717 33.757 215.231 33.6344 214.597 33.6344C213.981 33.6344 213.496 33.757 213.142 34.0021C212.787 34.2473 212.535 34.6528 212.386 35.2185C212.237 35.7655 212.162 36.5104 212.162 37.4533C212.162 38.3963 212.227 39.1601 212.358 39.7447C212.489 40.3293 212.722 40.7537 213.058 41.0177C213.412 41.2817 213.925 41.4137 214.597 41.4137Z" fill="white"/>
<path d="M223.55 44.6386V40.1407H228V44.6386H223.55Z" fill="white"/>
</g>
</g>
<g clip-path="url(#clip1_3_34)" filter="url(#filter2_d_3_34)">
<g filter="url(#filter3_d_3_34)">
<path d="M57.3685 19.0001C57.6979 19.0001 57.9482 19.2969 57.8885 19.6209C57.7131 20.5753 57.5164 21.5023 57.2958 22.4019C57.0074 23.5814 56.6785 24.7154 56.3193 25.8038C55.9297 26.9883 55.4946 28.1223 55.0291 29.2056C54.8875 29.5296 54.7458 29.8485 54.6041 30.1624C54.2146 31.0078 53.8047 31.8228 53.3747 32.6074C52.7169 33.8072 52.0137 34.9411 51.275 36.0093C51.2497 36.0447 51.2294 36.0751 51.2041 36.1106C50.9389 36.4956 50.6681 36.8695 50.3919 37.2345C50.226 37.4536 49.9194 37.505 49.6871 37.3582C49.0726 36.9701 48.4367 36.585 47.8041 36.2169C47.6878 36.146 47.5663 36.0801 47.45 36.0093C46.3268 35.3614 45.2491 34.769 44.4041 34.3236C44.2871 34.2606 44.1742 34.2007 44.0664 34.1437C43.7768 33.9909 43.6939 33.6165 43.8877 33.3525C44.0615 33.1156 44.233 32.8748 44.4011 32.6272C44.4031 32.6242 44.4052 32.6217 44.4077 32.619C44.4154 32.6103 44.4178 32.5973 44.4244 32.5876C45.144 31.5338 45.8084 30.4098 46.4026 29.2005C46.826 28.3412 47.2133 27.4392 47.5567 26.4947C47.6806 26.1539 47.4247 25.7987 47.0621 25.7987H24.5303C24.2369 25.7987 23.9991 25.5608 23.9991 25.2674V19.5313C23.9991 19.2379 24.2369 19.0001 24.5303 19.0001H57.3685Z" fill="white"/>
</g>
<g filter="url(#filter4_d_3_34)">
<path d="M57.6996 52.2752C57.8477 52.6206 57.5911 52.9999 57.2153 52.9999H51.4782C51.301 52.9999 51.1358 52.9114 51.0357 52.7652C50.2509 51.6181 49.4137 50.5677 48.5364 49.6016C48.2934 49.3336 48.0453 49.0656 47.7922 48.8127C46.8554 47.8519 45.8884 46.9871 44.9162 46.2084C44.744 46.0667 44.5668 45.9302 44.3896 45.7987C43.8985 45.4195 43.4022 45.0655 42.9111 44.7267C42.263 44.2867 41.62 43.8771 40.9871 43.5029C40.5769 43.2601 40.1719 43.0275 39.7668 42.8151C39.0174 42.4105 38.2833 42.0464 37.5845 41.7278C36.9567 41.4396 36.3491 41.1817 35.7769 40.9592C35.2098 40.7367 34.6731 40.5395 34.182 40.3726C32.8134 39.9035 31.7647 39.6387 31.2128 39.5133C30.9624 39.4565 30.7795 39.2352 30.7795 38.9784V33.1859C30.7795 32.8757 31.0432 32.6345 31.3508 32.6751C31.9268 32.7511 32.9117 32.9061 34.182 33.2017C35.1643 33.4293 36.3188 33.7428 37.5845 34.1676C38.6529 34.5267 39.7972 34.9616 40.9871 35.4976C41.2555 35.619 41.5238 35.7404 41.7922 35.8718C41.8884 35.9173 41.9795 35.9628 42.0757 36.0084C42.8352 36.3826 43.6099 36.7922 44.3896 37.2473C45.4732 37.8794 46.5618 38.5976 47.6402 39.4067L47.7922 39.523C47.9339 39.6292 48.0757 39.7404 48.2174 39.8517C49.2301 40.6507 50.2327 41.5357 51.1947 42.5167C51.2858 42.6128 51.382 42.7089 51.4731 42.805C52.4554 43.8316 53.4023 44.9593 54.2934 46.2033C54.3947 46.3449 54.4959 46.4915 54.5972 46.6332C55.2352 47.5585 55.8428 48.5447 56.4098 49.5966C56.8657 50.4507 57.299 51.3402 57.6996 52.2752Z" fill="white"/>
</g>
<g filter="url(#filter5_d_3_34)">
<path d="M40.4326 46.2083C40.5383 46.2647 40.5365 46.4118 40.4363 46.4774C39.4843 47.0999 38.5372 47.6619 37.6034 48.1756C36.6419 48.7015 35.7005 49.1768 34.7844 49.5966C34.5921 49.6876 34.3948 49.7736 34.2024 49.8596C33.003 50.3956 31.8592 50.8406 30.8014 51.2148C29.526 51.665 28.3771 52.0088 27.4004 52.2667C26.1442 52.6025 25.174 52.7989 24.5971 52.9026C24.2811 52.9593 23.9993 52.715 23.9993 52.3939V46.6309C23.9993 46.3813 24.1721 46.1645 24.4139 46.102C24.9612 45.9606 26.0192 45.6634 27.4004 45.1615C28.3873 44.8025 29.5463 44.3372 30.8014 43.7455C31.4087 43.4624 32.0363 43.1488 32.679 42.805C32.7468 42.7686 32.8135 42.7324 32.88 42.6961C33.0187 42.6206 33.1838 42.6114 33.3295 42.6722C33.4281 42.7134 33.5321 42.7576 33.6407 42.805C33.8178 42.8808 34.005 42.9617 34.2024 43.0477C35.1742 43.4674 36.3939 44.0187 37.6034 44.6305C38.6005 45.1312 39.5924 45.6723 40.4326 46.2083Z" fill="white"/>
</g>
</g>
<defs>
<filter id="filter0_d_3_34" x="41" y="1" width="116" height="68" filterUnits="userSpaceOnUse" color-interpolation-filters="sRGB">
<feFlood flood-opacity="0" result="BackgroundImageFix"/>
<feColorMatrix in="SourceAlpha" type="matrix" values="0 0 0 0 0 0 0 0 0 0 0 0 0 0 0 0 0 0 127 0" result="hardAlpha"/>
<feOffset/>
<feGaussianBlur stdDeviation="12"/>
<feComposite in2="hardAlpha" operator="out"/>
<feColorMatrix type="matrix" values="0 0 0 0 1 0 0 0 0 1 0 0 0 0 1 0 0 0 0.32 0"/>
<feBlend mode="normal" in2="BackgroundImageFix" result="effect1_dropShadow_3_34"/>
<feBlend mode="normal" in="SourceGraphic" in2="effect1_dropShadow_3_34" result="shape"/>
</filter>
<filter id="filter1_d_3_34" x="110" y="0.978088" width="142" height="68" filterUnits="userSpaceOnUse" color-interpolation-filters="sRGB">
<feFlood flood-opacity="0" result="BackgroundImageFix"/>
<feColorMatrix in="SourceAlpha" type="matrix" values="0 0 0 0 0 0 0 0 0 0 0 0 0 0 0 0 0 0 127 0" result="hardAlpha"/>
<feOffset/>
<feGaussianBlur stdDeviation="12"/>
<feComposite in2="hardAlpha" operator="out"/>
<feColorMatrix type="matrix" values="0 0 0 0 1 0 0 0 0 1 0 0 0 0 1 0 0 0 0.32 0"/>
<feBlend mode="normal" in2="BackgroundImageFix" result="effect1_dropShadow_3_34"/>
<feBlend mode="normal" in="SourceGraphic" in2="effect1_dropShadow_3_34" result="shape"/>
</filter>
<filter id="filter2_d_3_34" x="0" y="-5" width="82" height="82" filterUnits="userSpaceOnUse" color-interpolation-filters="sRGB">
<feFlood flood-opacity="0" result="BackgroundImageFix"/>
<feColorMatrix in="SourceAlpha" type="matrix" values="0 0 0 0 0 0 0 0 0 0 0 0 0 0 0 0 0 0 127 0" result="hardAlpha"/>
<feOffset/>
<feGaussianBlur stdDeviation="12"/>
<feComposite in2="hardAlpha" operator="out"/>
<feColorMatrix type="matrix" values="0 0 0 0 1 0 0 0 0 1 0 0 0 0 1 0 0 0 0.32 0"/>
<feBlend mode="normal" in2="BackgroundImageFix" result="effect1_dropShadow_3_34"/>
<feBlend mode="normal" in="SourceGraphic" in2="effect1_dropShadow_3_34" result="shape"/>
</filter>
<filter id="filter3_d_3_34" x="-0.0282211" y="-5.02724" width="81.9529" height="66.4959" filterUnits="userSpaceOnUse" color-interpolation-filters="sRGB">
<feFlood flood-opacity="0" result="BackgroundImageFix"/>
<feColorMatrix in="SourceAlpha" type="matrix" values="0 0 0 0 0 0 0 0 0 0 0 0 0 0 0 0 0 0 127 0" result="hardAlpha"/>
<feOffset/>
<feGaussianBlur stdDeviation="12.0137"/>
<feComposite in2="hardAlpha" operator="out"/>
<feColorMatrix type="matrix" values="0 0 0 0 1 0 0 0 0 1 0 0 0 0 1 0 0 0 0.24 0"/>
<feBlend mode="normal" in2="BackgroundImageFix" result="effect1_dropShadow_3_34"/>
<feBlend mode="normal" in="SourceGraphic" in2="effect1_dropShadow_3_34" result="shape"/>
</filter>
<filter id="filter4_d_3_34" x="6.75217" y="8.64335" width="75.0173" height="68.3839" filterUnits="userSpaceOnUse" color-interpolation-filters="sRGB">
<feFlood flood-opacity="0" result="BackgroundImageFix"/>
<feColorMatrix in="SourceAlpha" type="matrix" values="0 0 0 0 0 0 0 0 0 0 0 0 0 0 0 0 0 0 127 0" result="hardAlpha"/>
<feOffset/>
<feGaussianBlur stdDeviation="12.0137"/>
<feComposite in2="hardAlpha" operator="out"/>
<feColorMatrix type="matrix" values="0 0 0 0 1 0 0 0 0 1 0 0 0 0 1 0 0 0 0.24 0"/>
<feBlend mode="normal" in2="BackgroundImageFix" result="effect1_dropShadow_3_34"/>
<feBlend mode="normal" in="SourceGraphic" in2="effect1_dropShadow_3_34" result="shape"/>
</filter>
<filter id="filter5_d_3_34" x="-0.027977" y="18.605" width="64.567" height="58.3331" filterUnits="userSpaceOnUse" color-interpolation-filters="sRGB">
<feFlood flood-opacity="0" result="BackgroundImageFix"/>
<feColorMatrix in="SourceAlpha" type="matrix" values="0 0 0 0 0 0 0 0 0 0 0 0 0 0 0 0 0 0 127 0" result="hardAlpha"/>
<feOffset/>
<feGaussianBlur stdDeviation="12.0137"/>
<feComposite in2="hardAlpha" operator="out"/>
<feColorMatrix type="matrix" values="0 0 0 0 1 0 0 0 0 1 0 0 0 0 1 0 0 0 0.24 0"/>
<feBlend mode="normal" in2="BackgroundImageFix" result="effect1_dropShadow_3_34"/>
<feBlend mode="normal" in="SourceGraphic" in2="effect1_dropShadow_3_34" result="shape"/>
</filter>
<clipPath id="clip0_3_34">
<rect width="96" height="24" fill="white" transform="translate(133 23)"/>
</clipPath>
<clipPath id="clip1_3_34">
<rect width="34" height="34" fill="white" transform="translate(24 19)"/>
</clipPath>
</defs>
</svg>
